<svg width="1064" height="1064" viewBox="0 0 1064 1064" fill="none" xmlns="http://www.w3.org/2000/svg">
<rect x="16.1876" y="532" width="729.469" height="729.469" rx="138.964" transform="rotate(-45 16.1876 532)" fill="#FAFAFA" stroke="#00A3B9" stroke-width="22.3621" stroke-miterlimit="16" stroke-linejoin="round"/>
<mask id="mask0" mask-type="alpha" maskUnits="userSpaceOnUse" x="32" y="32" width="1000" height="1000">
<rect x="32" y="532" width="707.107" height="707.107" rx="127.783" transform="rotate(-45 32 532)" fill="white"/>
</mask>
<g mask="url(#mask0)">
<path d="M387.423 111.776C399.643 122.413 908.388 547.086 419.587 927.137L578.259 1072.94L661.884 1092.24L765.134 1021.77C1151.51 560.938 498.584 94.1501 484.073 85.9799L387.423 111.776Z" fill="url(#paint0_linear)"/>
<path d="M422.973 179.782L576.278 114.989L632.935 158.507L462.965 230.069L490.738 277.454L677.371 202.024L728.473 251.344L510.735 330.642L532.953 379.962L778.465 303.565L820.679 360.621L556.282 436.051L560.726 502.777L872.892 436.051L940.658 532.756L567.391 577.24L530.731 656.539L970.652 624.626V744.54L494.071 738.738L454.078 807.399L929.549 888.631L855.117 1027.89L387.423 888.631" stroke="#00A3B9" stroke-width="15.9729"/>
<path d="M408.531 915.709C897.333 535.658 400.755 113.056 388.535 102.419M485.184 76.6232C499.695 84.7934 1152.62 551.581 766.245 1012.41L685.471 1092.24" stroke="white" stroke-width="31.9458"/>
<path d="M408.531 915.709C897.333 535.658 400.755 113.056 388.535 102.419M485.184 76.6232C499.695 84.7934 1152.62 551.581 766.245 1012.41L691.904 1087.95" stroke="#00A3B9" stroke-width="15.9729"/>
<path d="M298.238 518.35H196.442V490.246H298.238V518.35ZM310.789 581.209H210.172C206.31 581.209 202.091 580.53 197.514 579.171C192.938 577.812 188.683 575.596 184.749 572.521C180.888 569.374 177.634 565.334 174.988 560.399C172.414 555.393 171.126 549.279 171.126 542.057V441.44C171.126 439.509 171.484 437.685 172.199 435.969C172.914 434.253 173.88 432.751 175.095 431.464C176.383 430.177 177.884 429.175 179.601 428.46C181.317 427.745 183.176 427.388 185.178 427.388H310.789V455.277H199.016V542.057C199.016 545.704 199.981 548.493 201.912 550.423C203.843 552.354 206.668 553.32 210.386 553.32H310.789V581.209Z" fill="#00353D"/>
<path d="M408.08 482.309L455.063 427.388H493.143L426.959 504.513L492.714 581.209H454.849L408.08 526.717L361.526 581.209H323.553L389.201 504.513L323.339 427.388H361.097L408.08 482.309Z" fill="#00353D"/>
<path d="M210.672 611.493L202.335 628.744H219.068L210.672 611.493ZM205.785 607.411H210.902C211.516 607.411 211.937 607.641 212.167 608.101L228.441 640.992C228.517 641.145 228.556 641.318 228.556 641.51C228.556 642.161 228.249 642.602 227.636 642.832C227.406 642.909 227.195 642.947 227.003 642.947C226.351 642.947 225.911 642.698 225.681 642.2L220.333 631.389H201.069L195.722 642.2C195.377 642.966 194.725 643.177 193.767 642.832C193.153 642.602 192.847 642.18 192.847 641.567C192.847 641.414 192.885 641.241 192.962 641.05L208.257 610.113H205.785C205.401 610.113 205.075 609.998 204.807 609.768C204.577 609.5 204.462 609.174 204.462 608.791C204.462 608.407 204.577 608.081 204.807 607.813C205.075 607.545 205.401 607.411 205.785 607.411ZM234.195 641.625V610.113H230.802C230.419 610.113 230.093 609.998 229.825 609.768C229.595 609.5 229.48 609.174 229.48 608.791C229.48 608.407 229.595 608.081 229.825 607.813C230.093 607.545 230.419 607.411 230.802 607.411H248.858C257.215 607.411 261.394 611.187 261.394 618.739C261.394 626.252 257.215 630.009 248.858 630.009H237.3V641.625C237.3 642.008 237.147 642.315 236.84 642.545C236.533 642.813 236.169 642.947 235.748 642.947C235.326 642.947 234.962 642.813 234.655 642.545C234.348 642.315 234.195 642.008 234.195 641.625ZM237.3 610.113V627.364H248.858C255.145 627.364 258.289 624.489 258.289 618.739C258.289 612.988 255.145 610.113 248.858 610.113H237.3ZM268.842 641.625V610.113H265.45C265.066 610.113 264.741 609.998 264.472 609.768C264.242 609.5 264.127 609.174 264.127 608.791C264.127 608.407 264.242 608.081 264.472 607.813C264.741 607.545 265.066 607.411 265.45 607.411H283.506C291.863 607.411 296.041 611.187 296.041 618.739C296.041 626.252 291.863 630.009 283.506 630.009H271.948V641.625C271.948 642.008 271.794 642.315 271.488 642.545C271.181 642.813 270.817 642.947 270.395 642.947C269.973 642.947 269.609 642.813 269.303 642.545C268.996 642.315 268.842 642.008 268.842 641.625ZM271.948 610.113V627.364H283.506C289.793 627.364 292.936 624.489 292.936 618.739C292.936 612.988 289.793 610.113 283.506 610.113H271.948ZM306.595 610.113V626.329H318.096C324.421 626.329 327.584 623.607 327.584 618.164C327.584 615.288 326.779 613.237 325.168 612.011C323.597 610.746 321.239 610.113 318.096 610.113H306.595ZM306.595 628.974V641.625C306.595 642.008 306.442 642.315 306.135 642.545C305.828 642.813 305.464 642.947 305.043 642.947C304.621 642.947 304.257 642.813 303.95 642.545C303.643 642.315 303.49 642.008 303.49 641.625V610.113H300.04C299.657 610.113 299.331 609.998 299.062 609.768C298.832 609.5 298.717 609.174 298.717 608.791C298.717 608.407 298.832 608.081 299.062 607.813C299.331 607.545 299.657 607.411 300.04 607.411H318.096C326.491 607.411 330.689 610.995 330.689 618.164C330.689 623.339 328.408 626.674 323.846 628.169L331.264 640.992C331.34 641.145 331.379 641.318 331.379 641.51C331.379 642.046 331.149 642.43 330.689 642.66C330.267 642.89 329.884 643.005 329.539 643.005C329.194 643.005 328.887 642.794 328.619 642.372L320.741 628.859C319.744 628.936 318.862 628.974 318.096 628.974H306.595ZM341.545 637.829C338.324 634.418 336.714 630.105 336.714 624.891C336.714 619.678 338.324 615.365 341.545 611.953C344.803 608.541 348.982 606.836 354.08 606.836C359.179 606.836 363.338 608.541 366.558 611.953C369.817 615.365 371.446 619.697 371.446 624.949C371.446 630.162 369.817 634.475 366.558 637.887C363.338 641.26 359.179 642.947 354.08 642.947C348.982 642.947 344.803 641.241 341.545 637.829ZM343.787 613.908C341.142 616.783 339.819 620.444 339.819 624.891C339.819 629.338 341.142 633.018 343.787 635.932C346.432 638.807 349.863 640.244 354.08 640.244C358.297 640.244 361.728 638.807 364.373 635.932C367.018 633.018 368.341 629.338 368.341 624.891C368.341 620.444 367.018 616.783 364.373 613.908C361.728 610.995 358.297 609.538 354.08 609.538C349.863 609.538 346.432 610.995 343.787 613.908ZM392.23 641.797C391.924 642.372 391.444 642.66 390.793 642.66C390.141 642.66 389.681 642.391 389.413 641.855L373.83 608.733C373.753 608.541 373.715 608.369 373.715 608.216C373.715 607.602 374.021 607.181 374.635 606.951C374.865 606.874 375.075 606.836 375.267 606.836C375.919 606.836 376.36 607.085 376.59 607.583L390.793 638.059L404.938 607.583C405.168 607.085 405.494 606.836 405.916 606.836C406.836 606.836 407.43 607.142 407.699 607.756C407.775 607.909 407.814 608.081 407.814 608.273C407.814 608.465 407.775 608.637 407.699 608.791L392.23 641.797ZM410.329 607.411H437.298C438.295 607.411 438.793 607.871 438.793 608.791V613.506C438.793 613.889 438.64 614.215 438.333 614.483C438.026 614.713 437.662 614.828 437.24 614.828C436.819 614.828 436.455 614.713 436.148 614.483C435.841 614.215 435.688 613.889 435.688 613.506V610.113H416.827V623.454H433.043V621.326C433.043 620.943 433.177 620.636 433.445 620.406C433.752 620.138 434.116 620.004 434.538 620.004C434.96 620.004 435.305 620.138 435.573 620.406C435.88 620.636 436.033 620.943 436.033 621.326V628.341C436.033 628.725 435.88 629.051 435.573 629.319C435.305 629.549 434.96 629.664 434.538 629.664C434.116 629.664 433.752 629.549 433.445 629.319C433.177 629.051 433.043 628.725 433.043 628.341V626.156H416.827V639.669H437.24C437.7 639.669 438.065 639.804 438.333 640.072C438.64 640.302 438.793 640.609 438.793 640.992C438.793 641.375 438.64 641.701 438.333 641.97C438.026 642.238 437.662 642.372 437.24 642.372H415.159C414.201 642.372 413.722 641.95 413.722 641.107V610.113H410.329C409.946 610.113 409.62 609.998 409.352 609.768C409.122 609.5 409.007 609.174 409.007 608.791C409.007 608.407 409.122 608.081 409.352 607.813C409.62 607.545 409.946 607.411 410.329 607.411ZM450.183 610.113V639.669H458.981C463.428 639.669 466.897 638.385 469.389 635.817C471.919 633.21 473.184 629.607 473.184 625.006C473.184 620.368 471.9 616.726 469.331 614.081C466.763 611.436 463.313 610.113 458.981 610.113H450.183ZM447.078 610.113H443.628C443.244 610.113 442.918 609.998 442.65 609.768C442.42 609.5 442.305 609.174 442.305 608.791C442.305 608.407 442.42 608.081 442.65 607.813C442.918 607.545 443.244 607.411 443.628 607.411H458.981C464.194 607.411 468.373 609.001 471.516 612.183C474.698 615.327 476.289 619.582 476.289 624.949C476.289 630.316 474.737 634.571 471.631 637.714C468.526 640.82 464.309 642.372 458.981 642.372H448.573C447.576 642.372 447.078 641.931 447.078 641.05V610.113Z" fill="black"/>
</g>
<defs>
<linearGradient id="paint0_linear" x1="637.321" y1="85.9799" x2="637.321" y2="1092.24" gradientUnits="userSpaceOnUse">
<stop stop-color="#D3D3D3"/>
<stop offset="1" stop-color="white"/>
</linearGradient>
</defs>
</svg>
