<svg id="Camada_2" data-name="Camada 2" xmlns="http://www.w3.org/2000/svg" viewBox="0 0 212.52 665.68"><defs><style>.cls-1,.cls-5,.cls-6,.cls-7{fill:#fff;}.cls-1,.cls-3,.cls-4,.cls-5,.cls-6,.cls-7,.cls-8{stroke:#29abe2;stroke-miterlimit:10;}.cls-1,.cls-3{stroke-width:5px;}.cls-2,.cls-3,.cls-4{fill:#29abe2;}.cls-4{stroke-width:4.03px;}.cls-5,.cls-8{stroke-width:2.09px;}.cls-6{stroke-width:1.85px;}.cls-7{stroke-width:2.34px;}.cls-8{fill:none;}</style></defs><path class="cls-1" d="M231.18,683.18H83.32a5.8,5.8,0,0,1-5.79-5.8s3.21-83,80.19-83,79.25,83,79.25,83A5.8,5.8,0,0,1,231.18,683.18Z" transform="translate(-51.23 -68.79)"/><path class="cls-2" d="M198.31,683.18H119.83c-1.7,0-3.08-2.6-3.08-5.8,0,0,1.71-83,42.57-83s42.06,83,42.06,83C201.38,680.58,200,683.18,198.31,683.18Z" transform="translate(-51.23 -68.79)"/><path class="cls-1" d="M50.48,614.39H165.25a0,0,0,0,1,0,0v7.37a41.42,41.42,0,0,1-41.42,41.42H91.9a41.42,41.42,0,0,1-41.42-41.42v-7.37a0,0,0,0,1,0,0Z"/><path class="cls-3" d="M108.29,499.61h0a3.15,3.15,0,0,1,3.15,3.15v23a0,0,0,0,1,0,0h-6.3a0,0,0,0,1,0,0v-23A3.15,3.15,0,0,1,108.29,499.61Z"/><path class="cls-4" d="M96.42,578.94c0,25.15,122-25.91,122-2.19C218.39,602.88,96.42,552.31,96.42,578.94Z" transform="translate(-51.23 -68.79)"/><rect class="cls-3" x="26.3" y="339.47" width="159.44" height="40.41" rx="5.79"/><path class="cls-3" d="M39.49,379.88H172.27a0,0,0,0,1,0,0v15a41.42,41.42,0,0,1-41.42,41.42H80.91a41.42,41.42,0,0,1-41.42-41.42v-15A0,0,0,0,1,39.49,379.88Z"/><path class="cls-3" d="M250.75,357.34s-38.48-12.61-98.51-12.61-88,12.61-88,12.61-1.4,12.25,2.8,18.21,16.3,16.86,16.3,23.17v9.54c-.72-.73,149.05-.73,148.33,0v-9.54c0-6.31,12.1-17.22,16.3-23.17S250.75,357.34,250.75,357.34Z" transform="translate(-51.23 -68.79)"/><rect class="cls-5" x="35.72" y="369.43" width="140.69" height="8.23"/><ellipse class="cls-6" cx="34.52" cy="373.42" rx="4.3" ry="6.19"/><ellipse class="cls-6" cx="177.51" cy="373.42" rx="4.3" ry="6.19"/><path class="cls-1" d="M194.29,503.16a29.32,29.32,0,0,1-8.42,1.78H177.6v-56.3h16.69Z" transform="translate(-51.23 -68.79)"/><path class="cls-7" d="M187.75,415.84H175.24a22.48,22.48,0,1,0-38.25,0H124.6a5.79,5.79,0,0,0-5.79,5.79V429a5.79,5.79,0,0,0,5.79,5.79h63.15a5.79,5.79,0,0,0,5.79-5.79v-7.36A5.79,5.79,0,0,0,187.75,415.84Z" transform="translate(-51.23 -68.79)"/><path class="cls-1" d="M257,107.1,198.54,72.5a8.72,8.72,0,0,0-4.42-1.21H120.86a8.72,8.72,0,0,0-4.42,1.21L58,107.1a8.68,8.68,0,0,0-2.69,12.44l28,40,76.62,0,71.72,0,28-40A8.67,8.67,0,0,0,257,107.1Z" transform="translate(-51.23 -68.79)"/><rect class="cls-1" x="26.3" y="90.78" width="159.44" height="40.41" rx="5.79"/><path class="cls-1" d="M39.49,131.19H172.27a0,0,0,0,1,0,0v15a41.42,41.42,0,0,1-41.42,41.42H80.91a41.42,41.42,0,0,1-41.42-41.42v-15A0,0,0,0,1,39.49,131.19Z"/><line class="cls-8" x1="27.07" y1="101" x2="184.27" y2="101"/><line class="cls-8" x1="27.07" y1="120.7" x2="184.27" y2="120.7"/><line class="cls-8" x1="27.07" y1="110.85" x2="184.27" y2="110.85"/><line class="cls-8" x1="49.93" y1="132.82" x2="49.93" y2="173.02"/><line class="cls-8" x1="61.09" y1="132.82" x2="61.09" y2="180.56"/><line class="cls-8" x1="72.24" y1="132.82" x2="72.24" y2="186.52"/><line class="cls-8" x1="83.39" y1="132.82" x2="83.39" y2="186.52"/><line class="cls-8" x1="94.54" y1="132.82" x2="94.54" y2="186.52"/><line class="cls-8" x1="105.7" y1="132.82" x2="105.7" y2="186.52"/><line class="cls-8" x1="116.85" y1="132.82" x2="116.85" y2="186.52"/><line class="cls-8" x1="128" y1="132.82" x2="128" y2="186.52"/><line class="cls-8" x1="139.16" y1="132.82" x2="139.16" y2="186.52"/><line class="cls-8" x1="150.31" y1="132.82" x2="150.31" y2="182.55"/><line class="cls-8" x1="161.46" y1="132.82" x2="161.46" y2="174.61"/><line class="cls-8" x1="67.65" y1="2.5" x2="67.65" y2="90.36"/><line class="cls-8" x1="20.08" y1="74.02" x2="61.05" y2="92.15"/><line class="cls-8" x1="8.15" y1="57.47" x2="68.04" y2="83.47"/><line class="cls-8" x1="1.85" y1="41.9" x2="68.04" y2="72.05"/><line class="cls-8" x1="12.49" y1="35.2" x2="68.04" y2="60.23"/><line class="cls-8" x1="23.91" y1="28.11" x2="68.04" y2="48.41"/><line class="cls-8" x1="35.93" y1="21.51" x2="68.04" y2="36.59"/><line class="cls-8" x1="46.77" y1="14.71" x2="68.04" y2="24.77"/><line class="cls-8" x1="57.8" y1="8.41" x2="68.04" y2="13.34"/><line class="cls-8" x1="77.3" y1="89.97" x2="77.3" y2="3.29"/><line class="cls-8" x1="86.95" y1="89.97" x2="86.95" y2="3.29"/><line class="cls-8" x1="96.61" y1="89.97" x2="96.61" y2="3.29"/><line class="cls-8" x1="144.87" y1="2.5" x2="144.87" y2="90.36"/><line class="cls-8" x1="192.44" y1="74.02" x2="151.46" y2="92.15"/><line class="cls-8" x1="204.36" y1="57.47" x2="144.47" y2="83.47"/><line class="cls-8" x1="210.67" y1="41.9" x2="144.47" y2="72.05"/><line class="cls-8" x1="200.03" y1="35.2" x2="144.47" y2="60.23"/><line class="cls-8" x1="188.6" y1="28.11" x2="144.47" y2="48.41"/><line class="cls-8" x1="176.59" y1="21.51" x2="144.47" y2="36.59"/><line class="cls-8" x1="165.75" y1="14.71" x2="144.47" y2="24.77"/><line class="cls-8" x1="154.72" y1="8.41" x2="144.47" y2="13.34"/><line class="cls-8" x1="135.22" y1="89.97" x2="135.22" y2="3.29"/><line class="cls-8" x1="125.56" y1="89.97" x2="125.56" y2="3.29"/><line class="cls-8" x1="115.91" y1="89.97" x2="115.91" y2="3.29"/><line class="cls-8" x1="106.26" y1="89.97" x2="106.26" y2="3.29"/></svg>