<?xml version="1.0" encoding="UTF-8" standalone="no"?>
<!-- Created with Inkscape (http://www.inkscape.org/) -->

<svg
   width="210mm"
   height="297mm"
   viewBox="0 0 210 297"
   version="1.1"
   id="svg5"
   xml:space="preserve"
   inkscape:version="1.2.1 (9c6d41e410, 2022-07-14)"
   sodipodi:docname="makerfabs logo.svg"
   xmlns:inkscape="http://www.inkscape.org/namespaces/inkscape"
   xmlns:sodipodi="http://sodipodi.sourceforge.net/DTD/sodipodi-0.dtd"
   xmlns="http://www.w3.org/2000/svg"
   xmlns:svg="http://www.w3.org/2000/svg"><sodipodi:namedview
     id="namedview7"
     pagecolor="#ffffff"
     bordercolor="#999999"
     borderopacity="1"
     inkscape:showpageshadow="0"
     inkscape:pageopacity="0"
     inkscape:pagecheckerboard="0"
     inkscape:deskcolor="#d1d1d1"
     inkscape:document-units="mm"
     showgrid="false"
     inkscape:zoom="3.8198845"
     inkscape:cx="364.80161"
     inkscape:cy="357.07886"
     inkscape:window-width="1920"
     inkscape:window-height="1051"
     inkscape:window-x="-9"
     inkscape:window-y="-9"
     inkscape:window-maximized="1"
     inkscape:current-layer="layer1" /><defs
     id="defs2" /><g
     inkscape:label="Layer 1"
     inkscape:groupmode="layer"
     id="layer1"><path
       style="fill:#000000;stroke-width:0.264583"
       d="m 76.656048,112.17387 -0.72482,-0.75655 1.288537,-1.97384 c 1.239004,-1.89796 1.272323,-1.99817 0.866776,-2.60676 -0.231969,-0.3481 -0.792639,-1.47323 -1.245934,-2.50029 -0.806408,-1.82712 -0.849181,-1.87148 -1.984375,-2.05819 -0.638111,-0.10494 -1.547155,-0.26013 -2.020098,-0.34484 l -0.859896,-0.15403 v -3.020521 -3.020525 l 0.992188,-0.258627 c 0.545703,-0.142245 1.427514,-0.336585 1.95958,-0.431867 0.858197,-0.153686 0.987751,-0.282437 1.147747,-1.140634 0.09919,-0.532066 0.52707,-1.783532 0.950836,-2.781035 0.423765,-0.997503 0.770483,-1.906877 0.770483,-2.020831 0,-0.113954 -0.429652,-0.831793 -0.954782,-1.595198 l -0.954781,-1.388008 2.129371,-2.129371 2.129372,-2.129371 1.443436,0.958387 1.443436,0.958388 1.782815,-0.946678 c 0.980547,-0.520673 2.331633,-1.086684 3.002412,-1.257801 l 1.219598,-0.311122 0.404029,-1.835293 0.404029,-1.835294 2.942939,-0.07455 2.942937,-0.07455 0.4373,1.965579 c 0.419281,1.884577 0.472521,1.972186 1.291841,2.125892 0.46999,0.08817 1.78134,0.625911 2.914096,1.194977 l 2.05956,1.034665 1.57632,-1.047022 1.57633,-1.047022 2.11188,2.111883 2.11189,2.111883 -1.20504,1.760132 c -1.19571,1.746508 -1.20147,1.765576 -0.74414,2.463549 0.2535,0.38688 0.72404,1.536928 1.04566,2.555663 0.64018,2.027772 0.53852,1.951335 3.41762,2.569649 l 1.5875,0.340929 0.0747,2.804773 c 0.0543,2.038451 -0.018,2.879411 -0.26458,3.077911 -0.18661,0.15022 -1.281,0.43934 -2.43198,0.64248 l -2.09269,0.36934 -0.36274,1.05067 c -0.1995,0.57786 -0.66049,1.62113 -1.02443,2.31837 l -0.6617,1.26772 1.33119,1.92563 c 0.73216,1.05909 1.33119,1.99751 1.33119,2.08537 0,0.0879 -0.36635,0.52609 -0.81411,0.97384 l -0.8141,0.81411 h -3.55152 -3.55153 v -2.06477 c 0,-2.03017 0.0161,-2.08004 0.96079,-2.97656 1.38883,-1.31801 2.88357,-3.71903 3.5835,-5.7562 0.89224,-2.596931 0.83956,-6.37181 -0.12351,-8.850528 -2.15776,-5.553602 -7.055446,-8.968724 -12.862194,-8.968724 -7.516705,0 -13.518998,5.971938 -13.518998,13.450631 0,3.897951 1.139084,6.785561 3.748786,9.503301 l 1.567313,1.63219 -0.07836,1.94918 -0.07836,1.94918 -3.449248,0.0734 -3.449247,0.0734 z m 7.671064,-4.45784 c -0.09902,-0.099 -0.18004,-0.68671 -0.18004,-1.30595 0,-0.99428 0.129306,-1.2366 1.105958,-2.07258 l 1.105958,-0.94665 6.368522,0.007 6.368524,0.007 1.138576,1.07443 c 1.03357,0.97534 1.13118,1.17604 1.05833,2.1762 l -0.0803,1.10177 -8.352765,0.0698 c -4.594024,0.0384 -8.43379,-0.0112 -8.532813,-0.11024 z m 2.99496,-5.09542 c 0,-0.13258 0.366323,-0.5493 0.81405,-0.92604 0.794531,-0.66855 0.906795,-0.68497 4.681877,-0.68497 3.836995,0 3.873745,0.006 4.609905,0.71095 0.40815,0.39103 0.74209,0.80775 0.74209,0.92605 0,0.11829 -2.440786,0.21508 -5.423963,0.21508 -3.086785,0 -5.423959,-0.10387 -5.423959,-0.24107 z m -2.3202,-7.485237 0.07124,-5.899737 1.520887,-0.07934 c 1.680132,-0.08764 1.349337,-0.309104 4.5114,3.020293 l 1.269788,1.336983 -0.941611,1.036029 -0.94161,1.03603 -1.043029,-1.190625 -1.04303,-1.190625 -0.0789,3.836458 -0.0789,3.836451 -1.658742,0.0789 -1.658742,0.0789 z m 12.286172,5.697837 c -0.097,-0.097 -0.17639,-1.836301 -0.17639,-3.865081 v -3.688682 l -1.256769,1.412869 c -0.691224,0.777078 -1.613958,1.808463 -2.050521,2.291963 l -0.79375,0.8791 -1.014825,-1.04092 -1.014825,-1.040916 2.84945,-3.206807 2.84945,-3.206808 h 1.93569 1.935686 v 5.820833 5.820839 h -1.543406 c -0.84887,0 -1.62278,-0.0794 -1.71979,-0.17639 z"
       id="path450" /></g></svg>
